<?xml version="1.0" standalone="no"?>
<!DOCTYPE svg PUBLIC "-//W3C//DTD SVG 20010904//EN"
 "http://www.w3.org/TR/2001/REC-SVG-20010904/DTD/svg10.dtd">
<svg version="1.0" xmlns="http://www.w3.org/2000/svg"
 width="512.000000pt" height="512.000000pt" viewBox="0 0 512.000000 512.000000"
 preserveAspectRatio="xMidYMid meet">
<metadata>
Created by potrace 1.14, written by Peter Selinger 2001-2017
</metadata>
<g transform="translate(0.000000,512.000000) scale(0.100000,-0.100000)"
fill="#000000" stroke="none">
<path d="M369 4741 c-1 -3 -2 -101 -3 -216 -1 -176 -4 -217 -18 -250 -10 -22
-90 -218 -179 -435 l-162 -395 -2 -96 c-2 -99 16 -200 51 -277 42 -90 149
-211 226 -255 l38 -21 2 -1210 3 -1211 2238 -1 2237 0 0 1211 0 1210 33 18
c41 22 124 99 164 152 82 108 121 235 118 380 l-2 100 -172 415 c-95 228 -176
423 -182 432 -5 10 -9 116 -9 236 l0 218 -2190 0 c-1205 0 -2190 -2 -2191 -5z"/>
</g>
</svg>
